<svg width="24" height="24" viewBox="0 0 24 24" fill="none" xmlns="http://www.w3.org/2000/svg">
<g clip-path="url(#clip0_261_1139)">
<path d="M11.9999 2.00033C14.6792 2.00914 17.2436 3.08934 19.1217 5.00023H15.9997C15.4475 5.00023 14.9998 5.44792 14.9998 6.00019C14.9998 6.55245 15.4475 7.00014 15.9997 7.00014H20.1426C21.1679 6.99958 21.999 6.16851 21.9996 5.1432V1.00033C21.9996 0.448063 21.5519 0.000374387 20.9996 0.000374387C20.4473 0.000374387 19.9996 0.448063 19.9996 1.00033V3.07828C15.0829 -1.34972 7.50757 -0.953549 3.07957 3.96316C1.3467 5.88732 0.283841 8.32113 0.0502706 10.9C-0.00110281 11.4538 0.406181 11.9443 0.959945 11.9957C0.989944 11.9985 1.02008 11.9999 1.05027 12C1.55711 12.0065 1.98559 11.6261 2.03926 11.122C2.50058 5.96292 6.82022 2.00712 11.9999 2.00033Z" fill="white"/>
<path d="M22.9506 12.0002C22.4437 11.9937 22.0152 12.3741 21.9616 12.8782C21.4844 18.3724 16.6436 22.4396 11.1493 21.9623C8.77211 21.7559 6.54745 20.7049 4.87814 19H8.00006C8.55232 19 9.00001 18.5523 9.00001 18C9.00001 17.4478 8.55232 17.0001 8.00006 17.0001H3.85719C2.83216 16.9995 2.00081 17.83 2.00024 18.855C2.00024 18.8556 2.00024 18.8563 2.00024 18.857V22.9999C2.00024 23.5521 2.44793 23.9998 3.0002 23.9998C3.55246 23.9998 4.00015 23.5521 4.00015 22.9999V20.9219C8.91686 25.3499 16.4922 24.9538 20.9202 20.037C22.6531 18.1129 23.716 15.6791 23.9495 13.1001C24.0009 12.5464 23.5936 12.0558 23.0399 12.0045C23.0102 12.0018 22.9804 12.0003 22.9506 12.0002Z" fill="white"/>
</g>
<defs>
<clipPath id="clip0_261_1139">
<rect width="24" height="24" fill="white"/>
</clipPath>
</defs>
</svg>
