<?xml version="1.0" encoding="UTF-8" ?>
<!DOCTYPE svg PUBLIC "-//W3C//DTD SVG 1.1//EN" "http://www.w3.org/Graphics/SVG/1.1/DTD/svg11.dtd">
<svg width="240pt" height="240pt" viewBox="0 0 240 240" version="1.1" xmlns="http://www.w3.org/2000/svg">
<g id="#ffffffff">
<path fill="#ffffff" opacity="1.00" d=" M 116.75 0.00 L 123.90 0.00 C 144.52 0.74 164.90 7.33 181.91 19.05 C 186.15 21.62 190.94 25.51 189.92 31.13 C 189.44 38.48 179.75 42.75 174.05 38.00 C 154.59 23.23 128.96 16.99 104.91 21.30 C 82.89 24.94 62.54 37.26 48.89 54.88 C 36.92 70.20 30.23 89.52 30.00 108.95 C 29.96 119.39 30.07 129.84 29.96 140.28 C 30.03 145.89 24.49 150.69 18.96 149.93 C 13.67 149.52 9.45 144.34 9.99 139.07 C 10.42 121.74 8.62 104.15 12.43 87.08 C 17.64 62.54 31.52 39.91 51.15 24.27 C 69.61 9.32 93.03 0.78 116.75 0.00 Z" />
<path fill="#ffffff" opacity="1.00" d=" M 110.52 40.69 C 129.00 38.03 148.39 43.33 163.06 54.85 C 178.83 66.97 188.83 86.17 189.90 106.02 C 190.55 128.13 188.96 150.32 184.96 172.08 C 183.99 177.73 177.45 181.46 172.07 179.49 C 167.23 178.08 164.24 172.67 165.45 167.79 C 168.56 150.03 170.22 132.00 170.00 113.97 C 170.11 108.64 169.91 103.27 168.56 98.09 C 164.71 81.91 152.19 68.16 136.45 62.79 C 118.80 56.47 97.73 61.19 84.69 74.70 C 82.06 77.88 78.36 80.89 73.94 80.13 C 68.00 79.67 63.66 73.03 65.53 67.39 C 66.94 63.30 70.49 60.54 73.52 57.65 C 83.84 48.54 96.85 42.49 110.52 40.69 Z" />
<path fill="#ffffff" opacity="1.00" d=" M 201.06 70.94 C 198.15 65.60 201.40 58.39 207.20 56.82 C 211.69 55.38 216.81 57.74 218.93 61.88 C 226.39 77.10 230.18 94.07 230.04 111.01 C 231.19 153.00 223.33 195.23 207.06 233.96 C 205.81 237.26 202.59 239.25 199.27 240.00 L 197.14 240.00 C 190.41 239.58 185.74 231.76 188.87 225.70 C 204.96 187.03 212.06 144.72 209.73 102.92 C 208.87 91.84 205.93 80.93 201.06 70.94 Z" />
<path fill="#ffffff" opacity="1.00" d=" M 113.50 80.70 C 121.67 78.88 130.64 80.62 137.41 85.59 C 144.75 90.57 149.29 99.15 149.94 107.93 C 151.23 114.35 145.36 120.98 138.78 119.91 C 133.45 119.41 129.55 114.19 129.89 108.96 C 129.67 101.22 118.92 96.97 113.45 102.47 C 108.71 106.25 110.23 112.79 110.00 118.06 C 109.75 143.78 106.82 170.71 93.22 193.15 C 86.10 205.00 75.99 215.13 63.91 221.89 C 58.98 224.45 52.39 221.72 50.45 216.58 C 48.45 212.01 50.62 206.34 54.97 204.01 C 69.37 195.54 79.17 180.83 83.94 165.05 C 89.68 146.94 90.04 127.72 90.02 108.89 C 90.31 95.59 100.44 83.35 113.50 80.70 Z" />
<path fill="#ffffff" opacity="1.00" d=" M 51.73 95.56 C 54.32 88.74 64.50 87.29 68.75 93.28 C 72.45 97.44 70.12 103.05 70.05 107.94 C 70.00 122.58 69.07 137.36 65.30 151.57 C 61.58 165.77 54.91 179.97 43.13 189.23 C 33.81 196.79 21.61 200.13 9.73 199.97 C 4.87 199.99 0.61 195.93 0.00 191.17 L 0.00 189.50 C 0.23 184.38 4.78 179.75 10.02 180.03 C 16.10 179.93 22.29 178.72 27.54 175.51 C 35.67 170.86 40.72 162.40 43.90 153.84 C 47.89 142.69 49.29 130.80 49.82 119.03 C 50.24 111.20 49.45 103.16 51.73 95.56 Z" />
<path fill="#ffffff" opacity="1.00" d=" M 129.23 137.89 C 129.93 133.31 134.40 129.77 139.00 129.97 C 144.25 129.86 149.25 134.56 148.97 139.92 C 146.60 172.33 136.83 205.37 115.42 230.45 C 111.84 234.24 108.68 239.53 102.94 240.00 L 101.84 240.00 C 93.80 240.01 89.16 229.41 94.60 223.52 C 113.36 205.11 123.42 179.59 127.26 153.95 C 128.18 148.63 128.56 143.24 129.23 137.89 Z" />
<path fill="#ffffff" opacity="1.00" d=" M 157.68 196.49 C 159.51 191.35 166.00 188.70 170.92 191.06 C 175.67 192.92 178.17 198.76 176.37 203.52 C 172.96 212.97 168.84 222.19 163.85 230.91 C 161.86 234.98 159.14 239.24 154.25 240.00 L 151.60 240.00 C 146.68 239.41 142.66 234.96 142.76 229.98 C 142.71 226.44 145.03 223.58 146.67 220.65 C 150.98 212.90 154.66 204.82 157.68 196.49 Z" />
</g>
</svg>
