<svg width="32" height="32" viewBox="0 0 32 32" fill="none" xmlns="http://www.w3.org/2000/svg">
<path d="M12.2095 27.6952V23.6062C12.2095 22.5661 13.0574 21.7211 14.1079 21.7141H17.956C19.0116 21.7141 19.8673 22.5612 19.8673 23.6062V23.6062V27.7079C19.867 28.5909 20.5789 29.3126 21.4706 29.3333H24.036C26.5934 29.3333 28.6666 27.2809 28.6666 24.7491V24.7491V13.1171C28.6529 12.1211 28.1806 11.1858 27.3839 10.5773L18.6102 3.58036C17.0732 2.36205 14.8882 2.36205 13.3511 3.58036L4.61595 10.59C3.81626 11.196 3.3431 12.1328 3.33325 13.1298V24.7491C3.33325 27.2809 5.40642 29.3333 7.9638 29.3333H10.5292C11.4431 29.3333 12.1839 28.5999 12.1839 27.6952V27.6952" stroke="white" stroke-width="1.5" stroke-linecap="round" stroke-linejoin="round"/>
</svg>
