<svg width="32" height="32" viewBox="0 0 32 32" fill="none" xmlns="http://www.w3.org/2000/svg">
<path fill-rule="evenodd" clip-rule="evenodd" d="M27.2028 18.1067C27.6797 18.3601 28.0476 18.7601 28.3065 19.1601C28.8107 19.9867 28.7698 21.0001 28.2793 21.8934L27.3254 23.4934C26.8213 24.3467 25.8811 24.8801 24.9136 24.8801C24.4367 24.8801 23.9053 24.7467 23.4692 24.4801C23.115 24.2534 22.7062 24.1734 22.2702 24.1734C20.9212 24.1734 19.7902 25.2801 19.7493 26.6001C19.7493 28.1334 18.4957 29.3334 16.9287 29.3334H15.0756C13.4949 29.3334 12.2413 28.1334 12.2413 26.6001C12.2141 25.2801 11.0831 24.1734 9.73414 24.1734C9.28448 24.1734 8.8757 24.2534 8.53505 24.4801C8.09901 24.7467 7.55397 24.8801 7.09068 24.8801C6.1096 24.8801 5.1694 24.3467 4.66523 23.4934L3.72503 21.8934C3.22087 21.0267 3.19362 19.9867 3.69778 19.1601C3.9158 18.7601 4.32458 18.3601 4.78787 18.1067C5.1694 17.9201 5.41467 17.6134 5.64631 17.2534C6.32762 16.1067 5.91884 14.6001 4.76062 13.9201C3.41163 13.1601 2.9756 11.4667 3.75229 10.1467L4.66523 8.57341C5.45555 7.25341 7.14518 6.78675 8.50779 7.56008C9.69326 8.20008 11.233 7.77341 11.9279 6.64008C12.146 6.26675 12.2686 5.86675 12.2413 5.46675C12.2141 4.94675 12.364 4.45341 12.6229 4.05341C13.127 3.22675 14.04 2.69341 15.0347 2.66675H16.956C17.9643 2.66675 18.8773 3.22675 19.3814 4.05341C19.6267 4.45341 19.7902 4.94675 19.7493 5.46675C19.7221 5.86675 19.8447 6.26675 20.0627 6.64008C20.7577 7.77341 22.2974 8.20008 23.4965 7.56008C24.8455 6.78675 26.5487 7.25341 27.3254 8.57341L28.2384 10.1467C29.0287 11.4667 28.5927 13.1601 27.2301 13.9201C26.0718 14.6001 25.6631 16.1067 26.358 17.2534C26.576 17.6134 26.8213 17.9201 27.2028 18.1067ZM12.146 16.0134C12.146 18.1067 13.8765 19.7734 16.0158 19.7734C18.1551 19.7734 19.8447 18.1067 19.8447 16.0134C19.8447 13.9201 18.1551 12.2401 16.0158 12.2401C13.8765 12.2401 12.146 13.9201 12.146 16.0134Z" fill="white"/>
</svg>
