<svg width="32" height="32" viewBox="0 0 32 32" fill="none" xmlns="http://www.w3.org/2000/svg">
<path fill-rule="evenodd" clip-rule="evenodd" d="M27.7424 10.1647L26.9125 8.72461C26.2104 7.50605 24.6544 7.08568 23.4342 7.78487V7.78487C22.8534 8.12704 22.1603 8.22412 21.5078 8.0547C20.8553 7.88528 20.297 7.46327 19.956 6.88175C19.7366 6.51212 19.6187 6.09111 19.6142 5.6613V5.6613C19.634 4.97221 19.374 4.30445 18.8935 3.81014C18.413 3.31583 17.7529 3.03707 17.0635 3.03735H15.3915C14.7161 3.03735 14.0686 3.30647 13.5922 3.78518C13.1157 4.26389 12.8497 4.91271 12.853 5.58808V5.58808C12.833 6.98249 11.6968 8.10233 10.3023 8.10219C9.87245 8.09773 9.45144 7.97984 9.08181 7.76047V7.76047C7.86158 7.06127 6.30565 7.48164 5.60355 8.70021L4.71262 10.1647C4.01138 11.3818 4.42603 12.9367 5.64016 13.643V13.643C6.42937 14.0986 6.91554 14.9407 6.91554 15.852C6.91554 16.7633 6.42937 17.6054 5.64016 18.061V18.061C4.42757 18.7625 4.01247 20.3137 4.71262 21.5271V21.5271L5.55473 22.9794C5.88369 23.573 6.43563 24.011 7.08842 24.1965C7.74121 24.382 8.44102 24.2998 9.03299 23.9679V23.9679C9.61494 23.6284 10.3084 23.5353 10.9593 23.7095C11.6102 23.8837 12.1645 24.3106 12.499 24.8955C12.7184 25.2651 12.8363 25.6861 12.8408 26.1159V26.1159C12.8408 27.5246 13.9828 28.6666 15.3915 28.6666H17.0635C18.4675 28.6667 19.6075 27.5321 19.6142 26.1281V26.1281C19.611 25.4506 19.8787 24.7999 20.3577 24.3209C20.8368 23.8418 21.4875 23.5741 22.165 23.5774C22.5937 23.5889 23.013 23.7063 23.3854 23.9191V23.9191C24.6024 24.6204 26.1574 24.2057 26.8637 22.9916V22.9916L27.7424 21.5271C28.0825 20.9432 28.1759 20.2479 28.0018 19.5951C27.8277 18.9422 27.4005 18.3857 26.8148 18.0488V18.0488C26.2292 17.7119 25.802 17.1554 25.6279 16.5025C25.4538 15.8497 25.5472 15.1543 25.8873 14.5705C26.1085 14.1844 26.4287 13.8642 26.8148 13.643V13.643C28.0217 12.9371 28.4354 11.3912 27.7424 10.1769V10.1769V10.1647Z" stroke="white" stroke-width="1.5" stroke-linecap="round" stroke-linejoin="round"/>
<ellipse cx="16.2336" cy="15.852" rx="3.51487" ry="3.51487" stroke="white" stroke-width="1.5" stroke-linecap="round" stroke-linejoin="round"/>
</svg>
