<svg width="108" height="126" viewBox="0 0 108 126" fill="none" xmlns="http://www.w3.org/2000/svg">
<path fill-rule="evenodd" clip-rule="evenodd" d="M52.3008 124.96C52.993 125.322 53.7669 125.506 54.5408 125.5C55.3148 125.494 56.0824 125.304 56.7808 124.936L79.0801 113.015C85.4036 109.645 90.3555 105.875 94.2189 101.487C102.619 91.9263 107.206 79.7239 107.124 67.1415L106.86 25.6374C106.835 20.8569 103.695 16.5913 99.0512 15.0407L57.5673 1.12228C55.0694 0.276505 52.3323 0.294891 49.8784 1.16518L8.55177 15.5801C3.93336 17.1919 0.850229 21.4882 0.875397 26.2748L1.13967 67.7482C1.22146 80.349 5.96572 92.4962 14.5041 101.959C18.4052 106.286 23.4012 110 29.7939 113.316L52.3008 124.96ZM46.3976 76.1808C47.3288 77.0756 48.5369 77.5169 49.745 77.5046C50.9531 77.4985 52.1549 77.045 53.0735 76.1379L77.4429 52.1131C79.2739 50.3051 79.255 47.4001 77.4051 45.6166C75.5489 43.8331 72.5602 43.8454 70.7292 45.6534L49.6758 66.4054L41.0556 58.1193C39.1994 56.3358 36.2169 56.3542 34.3796 58.1622C32.5486 59.9702 32.5675 62.8752 34.4237 64.6587L46.3976 76.1808Z" fill="#F35383"/>
</svg>
