<svg width="24" height="24" viewBox="0 0 24 24" fill="none" xmlns="http://www.w3.org/2000/svg">
<g clip-path="url(#clip0_261_1147)">
<path d="M8.0812 5.50529L11.0071 2.57832L11.0002 18.0161C11.0002 18.5683 11.4479 19.016 12.0001 19.016C12.5524 19.016 13.0001 18.5683 13.0001 18.0161L13.0071 2.59533L15.9191 5.50829C16.3163 5.89195 16.9494 5.88099 17.333 5.48373C17.7073 5.09622 17.7073 4.48184 17.333 4.09433L14.1221 0.879361C12.9509 -0.292589 11.0514 -0.293198 9.87949 0.878002C9.87902 0.878471 9.8786 0.878893 9.87813 0.879361L6.66719 4.09133C6.28353 4.48859 6.29449 5.12162 6.69175 5.50529C7.07926 5.87958 7.69365 5.87958 8.0812 5.50529Z" fill="white"/>
<path d="M22.9998 15.9999C22.4475 15.9999 21.9998 16.4476 21.9998 16.9998V20.9998C21.9998 21.552 21.5521 21.9997 20.9999 21.9997H3.00015C2.44788 21.9997 2.00018 21.552 2.00018 20.9998V16.9998C2.00018 16.4476 1.55249 15.9999 1.00021 15.9999C0.44794 15.9999 0.000244141 16.4476 0.000244141 16.9998V20.9998C0.000244141 22.6566 1.34338 23.9997 3.0002 23.9997H20.9999C22.6567 23.9997 23.9999 22.6566 23.9999 20.9998V16.9998C23.9998 16.4476 23.5521 15.9999 22.9998 15.9999Z" fill="white"/>
</g>
<defs>
<clipPath id="clip0_261_1147">
<rect width="24" height="24" fill="white"/>
</clipPath>
</defs>
</svg>
