<svg width="32" height="32" viewBox="0 0 32 32" fill="none" xmlns="http://www.w3.org/2000/svg">
<path fill-rule="evenodd" clip-rule="evenodd" d="M23.6919 11.1757H29.3334C29.3334 6.64612 26.6193 4 22.0208 4H9.97934C5.38082 4 2.66675 6.64612 2.66675 11.118V20.882C2.66675 25.3539 5.38082 28 9.97934 28H22.0208C26.6193 28 29.3334 25.3539 29.3334 20.882V20.4661H23.6919C21.0737 20.4661 18.9512 18.3967 18.9512 15.844C18.9512 13.2913 21.0737 11.222 23.6919 11.222V11.1757ZM23.6919 13.1632H28.3379C28.8877 13.1632 29.3334 13.5978 29.3334 14.1338V17.5079C29.327 18.0414 28.885 18.4723 28.3379 18.4786H23.7986C22.4731 18.496 21.3141 17.6112 21.0134 16.3524C20.8629 15.5711 21.0742 14.7648 21.5908 14.1496C22.1075 13.5345 22.8765 13.1734 23.6919 13.1632ZM23.8934 16.7106H24.3319C24.8949 16.7106 25.3512 16.2657 25.3512 15.7169C25.3512 15.1681 24.8949 14.7232 24.3319 14.7232H23.8934C23.6242 14.7201 23.3649 14.8222 23.1734 15.0067C22.9819 15.1912 22.8741 15.4428 22.8742 15.7053C22.8741 16.2561 23.3286 16.7043 23.8934 16.7106ZM8.98379 11.1757H16.5097C17.0726 11.1757 17.529 10.7308 17.529 10.182C17.529 9.63316 17.0726 9.18825 16.5097 9.18825H8.98379C8.42546 9.18821 7.97102 9.62613 7.96453 10.1704C7.96449 10.7212 8.41895 11.1694 8.98379 11.1757Z" fill="white"/>
</svg>
