<svg width="360" height="360" viewBox="0 0 360 360" fill="none" xmlns="http://www.w3.org/2000/svg">
<path d="M12.0516 2.01929C21.6914 -2.65326 34.7062 0.988155 39.8109 10.8236C43.9523 17.9911 41.2594 26.7305 44.1703 34.2729C45.668 39.3492 49.725 43.6252 54.9 44.6203C59.1609 45.4711 64.4555 46.0985 67.7953 42.6013C71.2617 38.8589 71.7398 33.4076 72.1477 28.5187C72.5836 22.815 75.5016 17.3709 80.0016 13.9747C85.7883 9.52566 94.0148 8.79016 100.505 12.0422C105.616 14.5443 109.554 19.4332 110.932 25.0792C112.148 30.0546 113.456 35.304 116.845 39.2411C119.334 42.32 124.77 42.5003 127.055 39.1041C128.995 36.1981 129.15 32.5639 129.607 29.1965C130.198 24.0769 133.425 19.4476 137.82 17.0032C142.066 14.5804 147.417 14.3064 151.868 16.3398C156.72 18.5174 160.397 23.2332 161.374 28.5836C163.343 40.301 163.027 53.028 157.289 63.6494C152.655 72.5186 144.682 78.7054 137.081 84.7335C134.536 86.8319 130.416 86.1901 128.595 83.4212C126.745 80.8902 127.28 77.0036 129.72 75.0856C135.668 69.9876 142.425 65.4304 146.419 58.4072C150.623 51.1964 151.024 42.4282 150.068 34.2801C149.752 32.1818 149.822 29.6508 148.029 28.2014C145.99 26.3339 142.284 27.4876 141.637 30.2204C141.047 33.2778 140.941 36.4361 139.957 39.4069C138.53 44.4544 135.464 49.2496 130.802 51.6796C124.629 54.8956 116.62 54.6648 110.995 50.3312C105.335 46.0264 102.248 39.1329 100.378 32.3476C99.5906 29.5498 99.3164 26.2545 96.968 24.2788C93.7617 21.2864 88.1297 21.8632 85.6125 25.4902C84.0094 27.5597 84.0656 30.3142 83.7914 32.8019C83.1516 39.3492 81.1195 46.048 76.6617 50.9369C73.0477 54.9388 67.8234 57.1597 62.557 57.4698C54.5555 57.9457 46.0055 55.9051 40.0711 50.1076C33.5813 43.8487 30.9867 34.5036 30.5578 25.6128C30.3539 22.2959 30.8461 18.5246 28.6875 15.7341C25.0664 11.1192 17.1562 11.2346 13.6195 15.9072C11.8336 18.2939 11.9742 21.4306 11.9883 24.2716C12.0656 29.8094 11.8828 35.3473 12.0867 40.8851C12.5297 48.442 16.2633 55.4075 21.2414 60.8372C28.4344 68.632 37.9828 73.8381 47.9812 76.7585C53.2828 78.3593 58.8586 78.7126 64.1672 80.2989C72.0844 82.5631 79.5516 86.5146 85.8656 91.9226C94.6617 99.3497 100.948 109.575 104.463 120.636C121.528 103.835 143.684 92.2039 167.28 89.3051C189.373 86.392 212.175 91.3314 231.588 102.407C231.687 99.6381 231.757 96.761 230.674 94.1652C229.029 90.1344 225.703 87.2357 222.532 84.4812C215.845 78.9361 208.68 73.6002 204.019 66.0217C198.338 57.1453 196.812 46.1345 197.733 35.7222C198.169 31.5905 198.33 27.2208 200.426 23.5361C203.196 18.4021 208.737 14.876 214.502 14.9842C221.674 14.8688 228.48 20.3345 230.091 27.502C230.864 31.2444 230.653 35.3184 232.671 38.6858C234.654 42.2912 240.103 42.4931 242.782 39.6088C246.452 35.7078 247.788 30.2493 249.047 25.1441C250.13 20.6951 252.766 16.6787 256.373 13.9747C262.181 9.52566 270.443 8.76853 276.94 12.0783C281.215 14.2054 284.653 18.0055 286.439 22.5194C288.591 27.6246 287.487 33.5013 289.716 38.5993C290.925 41.9379 293.773 44.8438 297.366 45.125C301.584 45.5 306.098 44.988 309.776 42.6734C316.751 37.9503 317.545 28.4394 317.602 20.623C317.749 14.6525 320.407 8.73248 324.963 4.95406C332.184 -1.24717 343.35 -1.59329 351.091 3.82197C356.463 7.35523 359.571 13.7079 360 20.1471V41.2384C359.332 51.0018 355.233 60.3324 348.926 67.6369C339.891 78.179 327.403 85.2311 314.283 88.8725C308.756 90.4805 302.955 90.7978 297.485 92.6004C291.959 94.3815 286.72 97.1793 282.263 100.987C280.737 102.256 279.141 103.777 277.045 103.799C274.064 104.022 271.209 101.614 270.823 98.5854C270.457 96.4438 271.385 94.2373 273.002 92.8817C279.541 86.9617 287.452 82.6929 295.84 80.2989C301.148 78.7198 306.717 78.3521 312.019 76.7585C322.165 73.7877 331.861 68.4734 339.075 60.4767C344.236 54.7586 347.92 47.3099 347.977 39.3997C347.991 33.1264 348.075 26.853 347.934 20.5797C347.913 16.311 344.32 12.8426 340.284 12.4676C335.306 11.4581 329.569 15.114 329.632 20.6446C329.534 28.872 328.563 37.4528 324.26 44.5986C320.639 50.8864 314.276 55.2777 307.322 56.7054C300.326 58.1836 292.409 58.0394 286.376 53.6481C280.055 49.1053 277.109 41.1375 276.279 33.5302C275.955 30.343 276.026 26.6079 273.389 24.3581C269.55 20.6013 262.238 22.368 260.824 27.74C258.891 35.7367 256.254 44.2381 249.82 49.6678C242.255 56.2728 229.324 54.9677 223.467 46.6321C219.959 41.9235 219.101 35.9097 218.355 30.2132C217.455 26.3483 211.5 26.4204 210.586 30.2565C208.702 40.0487 208.772 51.0594 214.327 59.6691C221.013 70.0958 233.374 74.8909 239.864 85.4979C244.245 92.5716 244.42 101.527 242.452 109.445C253.055 117.427 262.582 126.945 270.33 137.869C271.371 139.65 273.502 139.997 275.203 140.811C295.931 149.81 313.376 166.445 323.747 186.917C329.344 198.144 333.141 210.611 333.12 223.309C333.056 230.333 331.186 238.214 325.237 242.439C322.523 244.22 319.261 245.749 315.97 245.259C311.991 244.48 309.952 239.137 312.391 235.805C314.114 232.633 319.212 233.794 320.062 229.878C322.102 223.021 320.843 215.68 319.233 208.873C313.826 188.207 300.255 170.109 282.691 158.701C291.734 178.026 296.529 199.6 295.305 221.067C294.328 239.281 288.738 257.344 278.543 272.364C275.365 277.209 271.498 281.507 267.701 285.834C275.702 307.365 280.673 330.071 282.67 353.016C283.282 356.715 279.991 360.342 276.349 359.974C273.22 359.837 270.752 356.931 270.717 353.787C268.91 333.532 264.642 313.515 258.019 294.342C236.932 310.667 210.495 318.722 184.261 319.493C165.009 320.056 145.582 316.76 127.73 309.283C125.719 308.389 123.335 307.718 122.161 305.649C116.88 296.83 114.736 286.172 115.868 275.904C117.176 263.661 122.52 252.159 129.818 242.483C135.963 234.342 143.585 227.391 152.128 221.975C152.17 214.253 156.628 206.667 163.603 203.552C171.183 200.314 179.705 199.449 187.777 200.963C192.818 201.973 198.105 203.494 201.832 207.338C205.727 211.102 207.745 216.538 207.886 221.975C221.618 230.722 233.079 243.521 239.59 258.757C241.08 261.721 239.745 265.68 236.784 267.042C233.916 268.521 230.07 267.129 228.818 264.079C223.186 251.114 213.525 240.096 201.79 232.618C199.716 231.227 197.002 230.333 195.947 227.823C194.73 225.242 196.327 222.35 195.504 219.697C194.871 217.252 192.987 215.24 190.659 214.447C183.818 211.895 176.084 211.895 169.256 214.483C166.268 215.507 164.187 218.586 164.215 221.802C164.152 224.42 165.691 226.626 166.915 228.789C169.137 232.532 171.197 236.375 173.461 240.089C174.916 242.598 177.799 244.091 180.633 243.809C183.734 243.737 185.913 240.42 189.134 241.055C192.502 241.408 195.026 245.115 194.175 248.489C193.535 251.604 190.519 253.205 187.952 254.438C179.037 258.685 167.498 254.799 162.837 245.915C160.545 241.971 158.309 237.998 156.016 234.053C144.148 242.331 134.325 254.186 129.698 268.239C126.563 277.75 126.766 288.617 131.456 297.565C153.9 307.055 178.995 309.586 202.88 305.288C218.482 302.469 233.698 296.657 246.79 287.413C258.982 278.839 269.191 267.143 275.449 253.349C282.945 237.096 284.815 218.572 282.642 200.855C279.548 175.062 267.652 150.575 249.785 132.187C234.928 116.843 215.662 105.666 194.759 102.09C175.781 98.7151 155.911 102.162 138.748 110.988C99.6398 130.861 74.1727 175.69 76.6687 220.389C77.5898 240.601 85.3242 260.603 99.1195 275.198C100.786 277.08 102.797 278.637 104.316 280.656C105.701 282.567 105.455 285.141 104.583 287.225C96.5461 308.295 91.3922 330.518 89.3742 353.052C89.2195 354.956 88.8187 357.011 87.3352 358.323C85.043 360.652 80.9227 360.479 78.8203 357.97C77.4 356.477 77.0977 354.285 77.3648 352.302C79.432 329.588 84.3891 307.127 92.2922 285.797C80.1633 273.251 71.2617 257.402 67.3594 240.146C58.6758 244.026 48.8812 247.444 39.3961 244.797C33.1453 243.067 28.8844 237.096 27.7031 230.772C25.65 220.266 27.7664 209.407 31.05 199.406C35.4094 186.607 42.4336 174.774 51.4266 164.845C53.6906 162.206 58.1344 162.335 60.2789 165.061C62.4023 167.441 62.1 171.356 59.8781 173.57C50.857 183.751 44.0086 196.067 40.6195 209.407C39.0797 216.07 37.9195 223.252 39.9586 229.936C40.5914 232.553 43.3758 233.484 45.7242 233.433C52.6148 233.498 59.0484 230.491 65.1586 227.556C61.7133 194.488 72.0914 160.518 92.1445 134.552C92.925 133.399 94.1766 132.44 94.507 131.048C92.5875 119.28 86.4703 108.176 77.3227 100.734C70.7766 95.3549 62.775 91.9947 54.4992 90.7329C36.6961 87.9495 19.1391 79.0659 8.25469 64.0171C3.50859 57.4193 0.597656 49.4731 0 41.2889V19.5558C0.611719 12.0494 5.25234 5.01174 12.0516 2.01929Z" fill="white"/>
<path d="M147.164 174.608C150.673 172.488 155.672 175.149 155.932 179.324C155.981 183.138 156.206 186.996 155.784 190.796C154.898 195.065 149.189 196.896 146.088 193.889C142.952 191.164 144.281 186.571 143.993 182.915C143.733 179.85 144.141 176.122 147.164 174.608Z" fill="white"/>
<path d="M207.513 174.428C210.094 173.166 213.483 174.147 215.001 176.641C216.457 178.906 215.887 181.761 216 184.314C215.887 187.537 216.703 191.532 213.933 193.875C210.839 196.889 205.109 195.087 204.216 190.811C203.78 187.22 204.054 183.578 204.026 179.966C203.984 177.615 205.446 175.394 207.513 174.428Z" fill="white"/>
</svg>
